# xmcd
#
# Track frame offsets:
#	183
#	18958
#	35083
#	51283
#	65158
#	79333
#	90733
#	102283
#	119233
#	128303
#	139558
#	149983
#	163033
#	173608
#	186583
#	200158
#	214108
#	226783
#	241633
#	252658
#	264808
#	278983
#	294883
#	307408
#
# Disc length: 4285
#
# Revision: 1
# Processed by: cddbd v1.5.1PL0 Copyright (c) Steve Scherf et al.
# Submitted via: CDex 1.40Release
# Normalized: r0:TDELIM( - )
#
DISCID=7210bb18
DTITLE=Various Artist - Sonet Blues Legacy Maxi Sampler
DYEAR=1985
DGENRE=Blues
TTITLE0=Bukka White - Aberdeen Mississippi Blues
TTITLE1=Snooks Eaglin - Funky Malaguena
TTITLE2=Champion Jack Dupree - Found My Baby Gone
TTITLE3=Mighty Joe Young - Wishy Washy Woman
TTITLE4=Juke Boy Bonner - I Am A Blues Man
TTITLE5=Big Joe Williams - Black Gal You're Sure Looking Warm
TTITLE6=Memphis Slim - A Long Time Gone
TTITLE7=J. D. Short - Starry Crown Blues
TTITLE8=Robert Pete Williams - I'm Going To Have Myself A Ball
TTITLE9=Eddie Boyd - The Cannonball
TTITLE10=Sunnyland Slim - She's So Mellow
TTITLE11=Lightnin' Hopkins - Please Help Poor Me
TTITLE12=Bukka White - Poor Boy Long Ways From Home
TTITLE13=Snooks Eaglin - Drive It Home
TTITLE14=Champion Jack Dupree - You're The One
TTITLE15=Mighty Joe Young - Early In The Morning
TTITLE16=Juke Boy Bonner - Lonesome Ride Back Home
TTITLE17=Big Joe Williams - I Been Wrong But I'll Be Right
TTITLE18=Memphis Slim - Let's Get Whith It
TTITLE19=J. D. Short - Make Me Down A Pallet
TTITLE20=Robert Pete Williams - You're My All Day Steady And My Midnight Dream
TTITLE21=Eddie Boyd - It's A Mellow Day
TTITLE22=Sunnyland Slim - Get Hip To Yourself
TTITLE23=Lightnin' Hopkins - ''Water Fallin'' Boogie
EXTD=YEAR: 1985 ID3G: 0
EXTT0=
EXTT1=
EXTT2=
EXTT3=
EXTT4=
EXTT5=
EXTT6=
EXTT7=
EXTT8=
EXTT9=
EXTT10=
EXTT11=
EXTT12=
EXTT13=
EXTT14=
EXTT15=
EXTT16=
EXTT17=
EXTT18=
EXTT19=
EXTT20=
EXTT21=
EXTT22=
EXTT23=
PLAYORDER=
